<svg id="a" xmlns="http://www.w3.org/2000/svg" width="299.968" height="57.456" viewBox="0 0 299.968 57.456">
  <g id="グループ_58" data-name="グループ 58" transform="translate(1.64)">
    <path id="パス_12" data-name="パス 12" d="M27.416,30.147a53.854,53.854,0,0,0-9.6-9.5A36.306,36.306,0,0,1,5.5,29.813a17.539,17.539,0,0,0-3.748-5.287,31.564,31.564,0,0,0,10.843-6.76,26.934,26.934,0,0,0,6.727-9.839l-8.7.134A39.679,39.679,0,0,0,5.3,8.4L5.127,2.438a24.84,24.84,0,0,0,3.514.235c.268,0,.9,0,1.874-.034l11.446-.167A6.156,6.156,0,0,0,24.638,2.1l2.945,3.012a5.293,5.293,0,0,0-1.2,1.975,39.476,39.476,0,0,1-4.919,9.036A78.517,78.517,0,0,1,32.1,25.2Z" transform="translate(-1.748 -0.129)" fill="#036eb8"/>
    <path id="パス_13" data-name="パス 13" d="M47.467,4.719A21.476,21.476,0,0,0,46.6.938L52.756,0a27.214,27.214,0,0,0,.468,3.714l.369,1.84,5.221-.8a31.835,31.835,0,0,0,4.786-.97L64.536,9.4c-1.137.1-1.137.1-4.751.635l-5.221.8.8,4.217,6.192-.938a31.249,31.249,0,0,0,4.819-1.037l1,5.656c-1.907.2-1.907.2-4.718.6l-6.325.97.938,4.853a29.915,29.915,0,0,0,1,4.484l-6.36,1.038a24.494,24.494,0,0,0-.6-4.652l-.871-4.819-6.627,1.037a35.974,35.974,0,0,0-4.584.937l-.9-5.689a39.065,39.065,0,0,0,4.785-.536l6.393-1-.77-4.217-4.618.737a39.649,39.649,0,0,0-4.986.937l-.9-5.723a33.69,33.69,0,0,0,4.919-.535l4.652-.7Z" transform="translate(-3.993)" fill="#036eb8"/>
    <path id="パス_14" data-name="パス 14" d="M96.108,24.65a38.117,38.117,0,0,0,4.385-.2v5.087c-1.1-.1-2.711-.134-4.417-.134H80.413c-2.175,0-3.28.033-4.484.134V24.45a29.506,29.506,0,0,0,4.484.2h8.266c.8-4.484.97-5.589,1.439-9.973H83.692c-2.242,0-3.246.034-4.351.134V9.725a30.742,30.742,0,0,0,4.484.2h8.1a3.733,3.733,0,0,0,1.907-.369l2.544,2.109c-.435.837-.435.837-.871,4.116-.3,2.243-.837,5.856-1.305,8.869Z" transform="translate(-6.312 -0.588)" fill="#036eb8"/>
    <path id="パス_15" data-name="パス 15" d="M108.989,12.695a47.374,47.374,0,0,0,6.861.3h16a54.858,54.858,0,0,0,6.861-.3v6.459a64.413,64.413,0,0,0-6.894-.2H115.883c-3.748,0-4.853.033-6.894.2V12.695Z" transform="translate(-8.346 -0.781)" fill="#036eb8"/>
    <path id="パス_16" data-name="パス 16" d="M157.342,3.71a8.411,8.411,0,0,0-.235,1.472,3.54,3.54,0,0,0-.1.669c-.034.167-.067.435-.134.77A61.689,61.689,0,0,1,154.5,17.9a32.782,32.782,0,0,1-5.924,11.345,22.855,22.855,0,0,0-5.455-3.983A23.454,23.454,0,0,0,147.87,17.7a42.877,42.877,0,0,0,3.112-15.127Zm9.772-1.171a40.681,40.681,0,0,0,1.2,7.4,42.388,42.388,0,0,0,3.414,9.27,32.832,32.832,0,0,0,3.915,5.823,21.567,21.567,0,0,0-5.288,4.217,38.734,38.734,0,0,1-5.789-10.911,62.26,62.26,0,0,1-2.845-12.047,17.853,17.853,0,0,0-.468-2.644Zm3.515.737A29,29,0,0,1,172.5,7.893l-2.777,1a22.808,22.808,0,0,0-1.74-4.719ZM174.21,2.1a19.741,19.741,0,0,1,1.874,4.417l-2.678,1.037A27.909,27.909,0,0,0,171.6,3.007Z" transform="translate(-10.446 -0.129)" fill="#036eb8"/>
    <path id="パス_17" data-name="パス 17" d="M200.937,15.821a5.1,5.1,0,1,1-5.087-5.087A5.092,5.092,0,0,1,200.937,15.821Z" transform="translate(-13.375 -0.66)" fill="#036eb8"/>
    <path id="パス_18" data-name="パス 18" d="M222.152,8.462c-2.778,0-3.949.034-5.421.167V2.739a42.067,42.067,0,0,0,5.522.268l18.339-.034a6.349,6.349,0,0,0,2.31-.335l3.212,3.615A7.73,7.73,0,0,0,244.575,8.4a44.867,44.867,0,0,1-10.609,12.817c1.439,1.707,2.376,2.912,3.983,5.087l-5.021,3.915a56.457,56.457,0,0,0-6.459-8.735,49.919,49.919,0,0,0-6.727-6.659l4.585-3.212a51.9,51.9,0,0,1,5.789,5.321,36.848,36.848,0,0,0,5.221-5.287A23.172,23.172,0,0,0,237.479,8.4Z" transform="translate(-14.975 -0.162)" fill="#036eb8"/>
    <path id="パス_19" data-name="パス 19" d="M262.167,1.212A40.22,40.22,0,0,0,262,5.7v6.659a43.753,43.753,0,0,0,.167,4.786h-6.492a34.627,34.627,0,0,0,.2-4.887V5.629a33.4,33.4,0,0,0-.2-4.417h6.492Zm15.562,0c-.134,1.874-.168,2.376-.168,4.518V9.645a43.3,43.3,0,0,1-.769,9.738,13.761,13.761,0,0,1-6.962,8.5,28.021,28.021,0,0,1-6.961,2.745,15.3,15.3,0,0,0-3.414-5.723,21.611,21.611,0,0,0,6.627-2.042,8.636,8.636,0,0,0,4.986-6.492,56.8,56.8,0,0,0,.369-7.095V5.8a32.455,32.455,0,0,0-.2-4.584h6.492Z" transform="translate(-17.371 -0.075)" fill="#036eb8"/>
    <path id="パス_20" data-name="パス 20" d="M292.406,2.14a48.83,48.83,0,0,1,9.2,6.559L297.66,13.92a35.751,35.751,0,0,0-9.1-7.061Zm-3.514,20.782a33.578,33.578,0,0,0,10.073-2.409,20.12,20.12,0,0,0,9.805-8.266,30.782,30.782,0,0,0,3.28-6.559,21.58,21.58,0,0,0,4.919,4.484c-3.045,6.593-6.225,10.542-10.91,13.553-3.615,2.343-6.794,3.581-13.018,5.021-1.305.3-1.505.334-2.409.6Z" transform="translate(-19.395 -0.132)" fill="#036eb8"/>
  </g>
  <g id="グループ_59" data-name="グループ 59" transform="translate(0 36.219)">
    <path id="パス_21" data-name="パス 21" d="M305.976,44.306c-15.507,2.866-29.61,5.468-51.006,5.406-54.469-.06-110.378-19.964-157.328-6.368,59.157-4.755,99.716,14.964,157.931,11.715C274.3,53.975,291.114,50.429,305.976,44.306Z" transform="translate(-6.008 -38.594)" fill="#0868ac"/>
    <path id="パス_22" data-name="パス 22" d="M204.084,56.125c-46.336,1.014-77.817-4.274-113.073-10.677C60.89,41.024,23.743,39.288,0,49.814c24.835-4.781,51.99-3.074,74.745.225C95.493,53.389,150.933,66.48,204.084,56.125Z" transform="translate(0 -38.802)" fill="#0868ac"/>
  </g>
</svg>
